<mxfile host="app.diagrams.net" agent="Mozilla/5.0 (Macintosh; Intel Mac OS X 10_15_7) AppleWebKit/537.36 (KHTML, like Gecko) Chrome/128.0.0.0 Safari/537.36" version="24.7.16">
  <diagram name="Page-1" id="og9uhoOs-v_CvEjnszoW">
    <mxGraphModel dx="763" dy="511" grid="1" gridSize="10" guides="1" tooltips="1" connect="1" arrows="1" fold="1" page="1" pageScale="1" pageWidth="850" pageHeight="1100" math="0" shadow="0">
      <root>
        <mxCell id="0" />
        <mxCell id="1" parent="0" />
        <mxCell id="gvP-RIV5jqokBVA-moRR-1" value="URL Shortening Service" style="shape=umlFrame;whiteSpace=wrap;html=1;pointerEvents=0;recursiveResize=0;container=1;collapsible=0;width=160;" vertex="1" parent="1">
          <mxGeometry x="220" y="210" width="340" height="430" as="geometry" />
        </mxCell>
        <mxCell id="gvP-RIV5jqokBVA-moRR-7" value="Visting Shortened URLs" style="ellipse;whiteSpace=wrap;html=1;" vertex="1" parent="gvP-RIV5jqokBVA-moRR-1">
          <mxGeometry x="100" y="80" width="140" height="70" as="geometry" />
        </mxCell>
        <mxCell id="gvP-RIV5jqokBVA-moRR-9" value="Creating Shortened URLs" style="ellipse;whiteSpace=wrap;html=1;" vertex="1" parent="gvP-RIV5jqokBVA-moRR-1">
          <mxGeometry x="100" y="275" width="140" height="70" as="geometry" />
        </mxCell>
        <mxCell id="gvP-RIV5jqokBVA-moRR-2" value="Vistor" style="shape=umlActor;verticalLabelPosition=bottom;verticalAlign=top;html=1;outlineConnect=0;" vertex="1" parent="1">
          <mxGeometry x="110" y="295" width="30" height="60" as="geometry" />
        </mxCell>
        <mxCell id="gvP-RIV5jqokBVA-moRR-3" value="Creator" style="shape=umlActor;verticalLabelPosition=bottom;verticalAlign=top;html=1;outlineConnect=0;" vertex="1" parent="1">
          <mxGeometry x="110" y="490" width="30" height="60" as="geometry" />
        </mxCell>
        <mxCell id="gvP-RIV5jqokBVA-moRR-6" value="" style="endArrow=block;endSize=16;endFill=0;html=1;rounded=0;exitX=0.5;exitY=0;exitDx=0;exitDy=0;exitPerimeter=0;" edge="1" parent="1" source="gvP-RIV5jqokBVA-moRR-3">
          <mxGeometry width="160" relative="1" as="geometry">
            <mxPoint x="80" y="440" as="sourcePoint" />
            <mxPoint x="125" y="370" as="targetPoint" />
            <mxPoint as="offset" />
          </mxGeometry>
        </mxCell>
        <mxCell id="gvP-RIV5jqokBVA-moRR-8" style="rounded=0;orthogonalLoop=1;jettySize=auto;html=1;endArrow=none;endFill=0;" edge="1" parent="1" source="gvP-RIV5jqokBVA-moRR-7" target="gvP-RIV5jqokBVA-moRR-2">
          <mxGeometry relative="1" as="geometry" />
        </mxCell>
        <mxCell id="gvP-RIV5jqokBVA-moRR-10" style="rounded=0;orthogonalLoop=1;jettySize=auto;html=1;endArrow=none;endFill=0;" edge="1" parent="1" source="gvP-RIV5jqokBVA-moRR-9" target="gvP-RIV5jqokBVA-moRR-3">
          <mxGeometry relative="1" as="geometry" />
        </mxCell>
      </root>
    </mxGraphModel>
  </diagram>
</mxfile>
